<?xml version="1.0" encoding="utf-8"?>
<!-- Generator: Adobe Illustrator 24.2.0, SVG Export Plug-In . SVG Version: 6.00 Build 0)  -->
<svg version="1.1" id="Слой_1" xmlns="http://www.w3.org/2000/svg" xmlns:xlink="http://www.w3.org/1999/xlink" x="0px" y="0px"
	 viewBox="0 0 280 125" style="enable-background:new 0 0 280 125;" xml:space="preserve">
<style type="text/css">
	.st0{fill:#333333;}
</style>
<path class="st0" d="M174.3,21.1h-68.6c-4.4,0-7.9,3.5-7.9,7.9v47.5c0,4.4,3.5,7.9,7.9,7.9h68.6c4.4,0,7.9-3.5,7.9-7.9V29
	C182.2,24.6,178.7,21.1,174.3,21.1z M173.3,76.5h-66.6c-0.5,0-1-0.4-1-1V30c0-0.5,0.4-1,1-1h66.6c0.5,0,1,0.4,1,1v45.5
	C174.3,76,173.9,76.5,173.3,76.5z M118.9,35.6c-3.6,0-6.6,3-6.6,6.6s3,6.6,6.6,6.6s6.6-3,6.6-6.6S122.5,35.6,118.9,35.6z
	 M113.6,68.5h52.8V55.3L152,40.9c-0.8-0.8-2-0.8-2.8,0l-19.7,19.7l-6.5-6.5c-0.8-0.8-2-0.8-2.8,0l-6.5,6.5V68.5z"/>
<g>
	<g>
		<path class="st0" d="M114.7,102.5v-8.3h2.9c0.9,1.9,2.1,4.4,2.5,5.4h0c-0.1-0.9-0.1-2.3-0.1-3.6v-1.8h2.2v8.3h-2.8
			c-0.7-1.5-2.2-4.6-2.6-5.7h0c0.1,0.8,0.1,2.4,0.1,3.8v1.9H114.7z"/>
		<path class="st0" d="M130.1,99.3c0,2-1.2,3.3-3.4,3.3c-2.2,0-3.3-1.5-3.3-3.3c0-1.9,1.2-3.3,3.4-3.3
			C128.9,96,130.1,97.4,130.1,99.3z M125.8,99.3c0,1.2,0.4,1.7,1,1.7c0.6,0,1-0.5,1-1.7c0-1.3-0.3-1.7-1-1.7
			C126.2,97.6,125.8,98,125.8,99.3z"/>
		<path class="st0" d="M133.8,93.8h2.3v1.6h-2.3V93.8z M133.8,96.2h2.3v6.3h-2.3V96.2z"/>
		<path class="st0" d="M137.5,97.9c0-0.6,0-1.2,0-1.7h2.2c0,0.1,0.1,0.4,0.1,0.7c0.3-0.4,0.9-0.8,1.8-0.8c0.9,0,1.4,0.5,1.6,0.9
			c0.4-0.4,0.9-0.9,1.9-0.9c1.2,0,2,0.7,2,2.3v4.1h-2.3v-3.9c0-0.5-0.2-0.8-0.7-0.8c-0.5,0-0.7,0.3-0.7,1.1v3.7h-2.3v-3.9
			c0-0.5-0.1-0.9-0.6-0.9c-0.5,0-0.7,0.3-0.7,1.1v3.6h-2.3V97.9z"/>
		<path class="st0" d="M154.3,100.6c0,0.7,0,1.7,0.1,1.9h-2.2c0-0.1-0.1-0.4-0.1-0.6c-0.3,0.4-0.8,0.7-1.8,0.7c-1.4,0-2.2-0.9-2.2-2
			c0-1.5,1.2-2.1,3.1-2.1c0.2,0,0.6,0,0.8,0v-0.3c0-0.4-0.1-0.7-0.7-0.7c-0.5,0-0.7,0.2-0.7,0.6h-2.2c0.1-1,0.7-2.1,2.9-2.1
			c2.1,0,2.9,0.8,2.9,2.3V100.6z M152.1,99.7c-0.1,0-0.3,0-0.5,0c-0.8,0-1.1,0.3-1.1,0.7c0,0.4,0.2,0.7,0.7,0.7
			c0.8,0,0.9-0.5,0.9-1.2V99.7z"/>
		<path class="st0" d="M161.9,101.5c0,2.1-0.7,3.4-3.4,3.4c-2.5,0-3-1.4-3-2.1h2.3c0.1,0.3,0.3,0.6,0.8,0.6c0.8,0,1-0.5,1-1.5v-0.3
			c-0.3,0.5-0.8,0.8-1.7,0.8c-1.7,0-2.5-1.4-2.5-3c0-2,1.1-3.3,2.7-3.3c1,0,1.4,0.4,1.5,0.7c0-0.2,0.1-0.5,0.1-0.6h2.3
			c0,0.5,0,1.1,0,1.8V101.5z M157.8,99.2c0,0.9,0.4,1.5,1,1.5c0.8,0,1-0.6,1-1.5c0-1-0.1-1.6-0.9-1.6
			C158.2,97.6,157.8,98.1,157.8,99.2z"/>
		<path class="st0" d="M165.3,99.8c0,0.6,0.2,1.3,0.9,1.3c0.6,0,0.7-0.2,0.8-0.6h2.3c-0.2,0.8-0.9,2.1-3.2,2.1
			c-2.4,0-3.2-1.6-3.2-3.2c0-1.9,1-3.3,3.3-3.3c2.4,0,3.2,1.6,3.2,3.2c0,0.2,0,0.4,0,0.5H165.3z M167.1,98.6c0-0.6-0.2-1.1-0.8-1.1
			c-0.6,0-0.9,0.5-0.9,1.1H167.1z"/>
	</g>
</g>
</svg>
